<?xml version="1.0" standalone="no"?>
<!DOCTYPE svg PUBLIC "-//W3C//DTD SVG 20010904//EN"
 "http://www.w3.org/TR/2001/REC-SVG-20010904/DTD/svg10.dtd">
<svg version="1.0" xmlns="http://www.w3.org/2000/svg"
 width="300.000000pt" height="300.000000pt" viewBox="0 0 300.000000 300.000000"
 preserveAspectRatio="xMidYMid meet">

<g transform="translate(0.000000,300.000000) scale(0.100000,-0.100000)"
fill="#000000" stroke="none">
<path d="M1335 2725 c-159 -22 -323 -86 -460 -178 -84 -56 -226 -197 -284
-281 -108 -157 -185 -361 -198 -522 l-6 -84 112 0 111 0 0 29 c0 50 28 167 59
247 43 111 101 202 187 293 147 156 308 238 547 276 l37 6 0 114 c0 63 -3 115
-7 114 -5 -1 -48 -7 -98 -14z"/>
<path d="M1500 2628 l0 -114 95 -12 c293 -37 545 -212 679 -472 50 -96 91
-226 102 -319 l7 -61 110 0 110 0 -7 79 c-13 158 -74 338 -164 481 -194 309
-492 490 -859 525 l-73 7 0 -114z"/>
<path d="M1405 2140 c-244 -31 -365 -130 -381 -313 -8 -85 20 -160 82 -217 42
-39 73 -55 256 -138 75 -34 98 -64 79 -101 -14 -26 -48 -35 -106 -29 -63 8
-131 44 -189 103 l-52 51 -58 -168 c-32 -93 -57 -171 -55 -173 11 -10 207 -55
281 -65 169 -21 356 -12 501 25 l27 7 0 -66 c0 -37 -4 -66 -10 -66 -5 0 -10
-7 -10 -15 0 -10 10 -15 34 -15 39 0 55 14 30 28 -20 11 -15 61 7 75 28 17 49
1 49 -38 0 -19 -4 -35 -10 -35 -5 0 -10 -7 -10 -15 0 -10 10 -15 34 -15 38 0
57 16 32 26 -11 4 -16 19 -16 49 0 53 -18 70 -65 62 -31 -5 -35 -3 -35 17 0
16 14 32 48 54 137 89 175 288 79 414 -42 55 -114 97 -262 155 -140 54 -175
75 -175 107 0 37 30 56 91 56 69 0 142 -34 209 -96 28 -26 52 -45 53 -43 2 2
28 69 57 149 29 80 55 150 57 157 16 42 -397 95 -572 73z"/>
<path d="M380 1573 c0 -16 7 -75 15 -133 48 -358 264 -673 578 -845 122 -67
323 -125 435 -125 l42 0 0 110 c0 106 -1 110 -22 114 -13 2 -54 9 -91 16 -345
57 -638 345 -711 702 -9 42 -16 102 -16 133 l0 55 -115 0 -115 0 0 -27z"/>
<path d="M2377 1516 c-14 -169 -99 -385 -165 -417 -41 -19 -52 -35 -52 -74 0
-23 -11 -41 -42 -72 -152 -145 -324 -228 -529 -254 l-89 -12 0 -113 0 -114 63
6 c360 32 657 205 852 499 112 168 165 328 189 578 l6 57 -113 0 -114 0 -6
-84z"/>
<path d="M1954 1088 c-4 -6 1 -15 10 -20 22 -12 23 -133 1 -142 -32 -12 -13
-26 35 -26 50 0 69 17 30 27 -13 4 -20 14 -20 30 0 21 2 22 21 13 45 -24 99
11 99 64 0 50 -24 65 -103 65 -37 -1 -70 -5 -73 -11z m134 -27 c8 -4 12 -19
10 -32 -3 -21 -8 -24 -43 -24 -30 0 -41 4 -43 18 -7 37 41 61 76 38z"/>
</g>
</svg>
